<?xml version="1.0" encoding="UTF-8" standalone="no"?>
<!-- Created with Inkscape (http://www.inkscape.org/) -->

<svg
   xmlns:osb="http://www.openswatchbook.org/uri/2009/osb"
   xmlns:dc="http://purl.org/dc/elements/1.1/"
   xmlns:cc="http://creativecommons.org/ns#"
   xmlns:rdf="http://www.w3.org/1999/02/22-rdf-syntax-ns#"
   xmlns:svg="http://www.w3.org/2000/svg"
   xmlns="http://www.w3.org/2000/svg"
   xmlns:sodipodi="http://sodipodi.sourceforge.net/DTD/sodipodi-0.dtd"
   xmlns:inkscape="http://www.inkscape.org/namespaces/inkscape"
   width="210mm"
   height="297mm"
   viewBox="0 0 210 297"
   version="1.1"
   id="svg8"
   inkscape:version="0.92.4 (5da689c313, 2019-01-14)"
   sodipodi:docname="drawing.svg">
  <defs
     id="defs2">
    <linearGradient
       osb:paint="solid"
       id="linearGradient6040">
      <stop
         id="stop6038"
         offset="0"
         style="stop-color:#917c6f;stop-opacity:1;" />
    </linearGradient>
  </defs>
  <sodipodi:namedview
     id="base"
     pagecolor="#ffffff"
     bordercolor="#666666"
     borderopacity="1.0"
     inkscape:pageopacity="0.0"
     inkscape:pageshadow="2"
     inkscape:zoom="0.35"
     inkscape:cx="400"
     inkscape:cy="560"
     inkscape:document-units="mm"
     inkscape:current-layer="layer1"
     showgrid="false"
     inkscape:window-width="1366"
     inkscape:window-height="705"
     inkscape:window-x="-8"
     inkscape:window-y="-8"
     inkscape:window-maximized="1" />
  <metadata
     id="metadata5">
    <rdf:RDF>
      <cc:Work
         rdf:about="">
        <dc:format>image/svg+xml</dc:format>
        <dc:type
           rdf:resource="http://purl.org/dc/dcmitype/StillImage" />
        <dc:title></dc:title>
      </cc:Work>
    </rdf:RDF>
  </metadata>
  <g
     inkscape:label="Layer 1"
     inkscape:groupmode="layer"
     id="layer1">
    <g
       id="layer1-4"
       inkscape:label="Layer 1"
       transform="matrix(2.5180487,0,0,2.5180487,-133.12198,-121.72071)">
      <path
         inkscape:connector-curvature="0"
         id="path6089"
         d="m 135.17783,114.31955 c -10.36572,5.98465 -10.56415,6.09921 -10.56415,6.09921 l -4.07737,-14.61742 z"
         style="opacity:1;fill:#000000;stroke:none;stroke-width:0.26458332px;stroke-linecap:butt;stroke-linejoin:miter;stroke-opacity:1" />
      <path
         inkscape:connector-curvature="0"
         id="path6085"
         d="M 54.015788,103.78569 C 69.26449,94.981847 69.207144,94.95342 69.207144,94.95342 l 5.027083,14.02292 z"
         style="opacity:1;fill:#000000;stroke:none;stroke-width:0.26458332px;stroke-linecap:butt;stroke-linejoin:miter;stroke-opacity:1" />
      <path
         transform="scale(0.26458333)"
         id="path6061"
         d="m 350.91406,241.23828 -4.72461,2.73242 -4.72265,2.73242 -113.4043,65.51563 0.0234,115.01367 -0.0234,0.3457 v 0.54883 c -1.3e-4,67.44431 55.27858,122.40077 122.90234,122.40039 67.62378,3.8e-4 122.89465,-54.95687 122.89454,-122.40039 V 427.75 l -0.0156,-0.38672 v -0.004 c -0.0151,-0.39867 -0.0116,-0.21496 -0.008,-0.14844 l -0.0176,-115.0625 z"
         style="color:#000000;font-style:normal;font-variant:normal;font-weight:normal;font-stretch:normal;font-size:medium;line-height:normal;font-family:sans-serif;font-variant-ligatures:normal;font-variant-position:normal;font-variant-caps:normal;font-variant-numeric:normal;font-variant-alternates:normal;font-feature-settings:normal;text-indent:0;text-align:start;text-decoration:none;text-decoration-line:none;text-decoration-style:solid;text-decoration-color:#000000;letter-spacing:normal;word-spacing:normal;text-transform:none;writing-mode:lr-tb;direction:ltr;text-orientation:mixed;dominant-baseline:auto;baseline-shift:baseline;text-anchor:start;white-space:normal;shape-padding:0;clip-rule:nonzero;display:inline;overflow:visible;visibility:visible;opacity:1;isolation:auto;mix-blend-mode:normal;color-interpolation:sRGB;color-interpolation-filters:linearRGB;solid-color:#000000;solid-opacity:1;vector-effect:none;fill:#000000;fill-opacity:1;fill-rule:nonzero;stroke:none;stroke-width:18.89763832;stroke-linecap:butt;stroke-linejoin:miter;stroke-miterlimit:4;stroke-dasharray:none;stroke-dashoffset:0;stroke-opacity:1;color-rendering:auto;image-rendering:auto;shape-rendering:auto;text-rendering:auto;enable-background:accumulate"
         inkscape:connector-curvature="0" />
      <path
         transform="scale(0.26458333)"
         id="path6052"
         d="m 350.91992,252.15039 -4.72461,2.73242 -108.68359,62.78907 0.0234,109.77734 c -0.004,0.0688 -0.004,0.14158 -0.008,0.20508 l -0.0156,0.23632 v 0.23633 c -1.2e-4,62.29384 50.93342,112.95152 113.45312,112.95117 62.51968,3.5e-4 113.44543,-50.65733 113.44532,-112.95117 v -0.1914 l -0.008,-0.19922 c -0.002,-0.0378 -0.0118,-0.21204 -0.0156,-0.36133 l -0.0156,-109.76953 z"
         style="color:#000000;font-style:normal;font-variant:normal;font-weight:normal;font-stretch:normal;font-size:medium;line-height:normal;font-family:sans-serif;font-variant-ligatures:normal;font-variant-position:normal;font-variant-caps:normal;font-variant-numeric:normal;font-variant-alternates:normal;font-feature-settings:normal;text-indent:0;text-align:start;text-decoration:none;text-decoration-line:none;text-decoration-style:solid;text-decoration-color:#000000;letter-spacing:normal;word-spacing:normal;text-transform:none;writing-mode:lr-tb;direction:ltr;text-orientation:mixed;dominant-baseline:auto;baseline-shift:baseline;text-anchor:start;white-space:normal;shape-padding:0;clip-rule:nonzero;display:inline;overflow:visible;visibility:visible;opacity:1;isolation:auto;mix-blend-mode:normal;color-interpolation:sRGB;color-interpolation-filters:linearRGB;solid-color:#000000;solid-opacity:1;vector-effect:none;fill:#ffffff;fill-opacity:1;fill-rule:nonzero;stroke:none;stroke-width:18.89763832;stroke-linecap:butt;stroke-linejoin:miter;stroke-miterlimit:4;stroke-dasharray:none;stroke-dashoffset:0;stroke-opacity:1;color-rendering:auto;image-rendering:auto;shape-rendering:auto;text-rendering:auto;enable-background:accumulate"
         inkscape:connector-curvature="0" />
      <path
         inkscape:connector-curvature="0"
         id="path4558"
         d="M 92.84808,69.601436 65.341748,85.494 l 0.0052,27.67842 v 10e-4 c -0.0018,0.0339 -0.0035,0.0679 -0.0052,0.1018 -2.8e-5,15.12431 12.319639,27.38498 27.516667,27.38489 15.197025,9e-5 27.516695,-12.26058 27.516665,-27.38489 -0.002,-0.0486 -0.003,-0.0972 -0.005,-0.14573 l -0.005,-27.65309 z"
         style="opacity:1;fill:#000000;fill-opacity:1;stroke-width:0.26458332" />
      <path
         id="path4556"
         d="m 93.122993,78.747129 c -0.625681,6.51e-4 -1.251157,0.02254 -1.875338,0.06563 0.624181,-0.04309 1.249657,-0.06498 1.875338,-0.06563 z"
         style="opacity:1;fill:#917c6f;stroke-width:0.26458332"
         inkscape:connector-curvature="0" />
      <path
         id="path4554"
         d="m 89.652919,78.999827 c -0.382125,0.03805 -0.763408,0.08405 -1.143598,0.137978 0.38019,-0.05393 0.761473,-0.09993 1.143598,-0.137978 z"
         style="opacity:1;fill:#917c6f;stroke-width:0.26458332"
         inkscape:connector-curvature="0" />
      <path
         id="path4552"
         d="m 86.826219,79.50729 c -0.33329,0.06811 -0.665281,0.142361 -0.995804,0.222723 0.330523,-0.08036 0.662514,-0.154616 0.995804,-0.222723 z"
         style="opacity:1;fill:#917c6f;stroke-width:0.26458332"
         inkscape:connector-curvature="0" />
      <path
         id="path4550"
         d="m 84.065665,80.305693 c -0.282611,0.08849 -0.563767,0.181521 -0.843359,0.27905 0.279592,-0.09753 0.560748,-0.190558 0.843359,-0.27905 z"
         style="opacity:1;fill:#917c6f;stroke-width:0.26458332"
         inkscape:connector-curvature="0" />
      <path
         id="path4548"
         d="m 81.402777,81.387283 c -0.231015,0.09918 -0.460651,0.201504 -0.688846,0.30695 0.228195,-0.105446 0.457831,-0.207772 0.688846,-0.30695 z"
         style="opacity:1;fill:#917c6f;stroke-width:0.26458332"
         inkscape:connector-curvature="0" />
      <path
         id="path4546"
         d="m 78.871667,82.736033 c -0.182391,0.101469 -0.363615,0.205002 -0.543637,0.31058 0.180022,-0.105578 0.361246,-0.209111 0.543637,-0.31058 z"
         style="opacity:1;fill:#917c6f;stroke-width:0.26458332"
         inkscape:connector-curvature="0" />
      <path
         inkscape:connector-curvature="0"
         id="path4544"
         d="m 78.32803,87.809113 c -0.169295,0.117658 -0.337255,0.237209 -0.503846,0.35863 0.166591,-0.121421 0.334551,-0.240972 0.503846,-0.35863 z"
         style="opacity:1;fill:#917c6f;stroke-width:0.26458332" />
      <path
         inkscape:connector-curvature="0"
         id="path4542"
         d="m 76.105427,89.659133 c -0.116782,0.100311 -0.232714,0.201598 -0.347784,0.30385 0.11507,-0.102252 0.231002,-0.203539 0.347784,-0.30385 z"
         style="opacity:1;fill:#917c6f;stroke-width:0.26458332" />
      <path
         inkscape:connector-curvature="0"
         id="path4540"
         d="m 74.837097,92.230026 c -0.07765,0.08195 -0.154777,0.164393 -0.23137,0.247323 0.07659,-0.08292 0.153718,-0.165373 0.23137,-0.247323 z"
         style="opacity:1;fill:#917c6f;stroke-width:0.25530493" />
      <path
         inkscape:connector-curvature="0"
         id="path4538"
         d="m 73.115785,98.827353 c -0.04042,0.05983 -0.08065,0.119773 -0.120672,0.179829 0.04002,-0.06006 0.08026,-0.120001 0.120672,-0.179829 z"
         style="opacity:1;fill:#917c6f;stroke-width:0.25530493" />
      <path
         inkscape:connector-curvature="0"
         id="path4536"
         d="m 71.695651,101.33865 c -0.03192,0.0573 -0.06366,0.11468 -0.09524,0.17215 0.03157,-0.0575 0.06332,-0.11484 0.09524,-0.17215 z"
         style="opacity:1;fill:#917c6f;stroke-width:0.25530493" />
      <path
         inkscape:connector-curvature="0"
         id="path4531"
         d="m 70.509379,103.93896 c -0.02392,0.0534 -0.04768,0.10679 -0.07131,0.16025 0.02361,-0.0535 0.04739,-0.10688 0.07131,-0.16025 z"
         style="opacity:1;fill:#917c6f;stroke-width:0.25530493" />
      <path
         inkscape:connector-curvature="0"
         id="path6080"
         d="m 54.015789,103.78569 v 2.41244 23.09067 L 135.17783,114.31955 V 88.816427 Z"
         style="color:#000000;font-style:normal;font-variant:normal;font-weight:normal;font-stretch:normal;font-size:medium;line-height:normal;font-family:sans-serif;font-variant-ligatures:normal;font-variant-position:normal;font-variant-caps:normal;font-variant-numeric:normal;font-variant-alternates:normal;font-feature-settings:normal;text-indent:0;text-align:start;text-decoration:none;text-decoration-line:none;text-decoration-style:solid;text-decoration-color:#000000;letter-spacing:normal;word-spacing:normal;text-transform:none;writing-mode:lr-tb;direction:ltr;text-orientation:mixed;dominant-baseline:auto;baseline-shift:baseline;text-anchor:start;white-space:normal;shape-padding:0;clip-rule:nonzero;display:inline;overflow:visible;visibility:visible;opacity:1;isolation:auto;mix-blend-mode:normal;color-interpolation:sRGB;color-interpolation-filters:linearRGB;solid-color:#000000;solid-opacity:1;vector-effect:none;fill:#000000;fill-opacity:1;fill-rule:nonzero;stroke:none;stroke-width:4.82466078;stroke-linecap:butt;stroke-linejoin:miter;stroke-miterlimit:4;stroke-dasharray:none;stroke-dashoffset:0;stroke-opacity:1;color-rendering:auto;image-rendering:auto;shape-rendering:auto;text-rendering:auto;enable-background:accumulate" />
      <rect
         transform="matrix(0.98341354,-0.18137754,0,1,0,0)"
         y="116.15984"
         x="57.380459"
         height="20.679701"
         width="77.62368"
         id="rect6072"
         style="opacity:1;fill:#ffffff;fill-opacity:1;stroke:none;stroke-width:4.86517763;stroke-miterlimit:4;stroke-dasharray:none" />
      <text
         transform="skewY(-10.450008)"
         id="text6070"
         y="133.31981"
         x="58.614647"
         style="font-style:normal;font-variant:normal;font-weight:normal;font-stretch:condensed;font-size:17.83865166px;line-height:1.25;font-family:'Geometr706 BlkCn BT';-inkscape-font-specification:'Geometr706 BlkCn BT, Condensed';font-variant-ligatures:normal;font-variant-caps:normal;font-variant-numeric:normal;font-feature-settings:normal;text-align:start;letter-spacing:0px;word-spacing:0px;writing-mode:lr-tb;text-anchor:start;opacity:1;fill:#000000;fill-opacity:1;stroke:none;stroke-width:0.4459663"
         xml:space="preserve"><tspan
           style="font-style:normal;font-variant:normal;font-weight:normal;font-stretch:condensed;font-size:17.83865166px;font-family:'Geometr706 BlkCn BT';-inkscape-font-specification:'Geometr706 BlkCn BT, Condensed';font-variant-ligatures:normal;font-variant-caps:normal;font-variant-numeric:normal;font-feature-settings:normal;text-align:start;writing-mode:lr-tb;text-anchor:start;stroke-width:0.4459663"
           y="133.31981"
           x="58.614647"
           id="tspan6068"
           sodipodi:role="line">CODEWELL</tspan></text>
      <g
         transform="translate(0.79375,-1.3229167)"
         id="text6099"
         style="font-style:normal;font-weight:normal;font-size:5.89586973px;line-height:12.35000038;font-family:sans-serif;letter-spacing:0px;word-spacing:0px;opacity:1;fill:#ffffff;fill-opacity:1;stroke:none;stroke-width:0.14739671"
         aria-label="LET'S CODE">
        <path
           inkscape:connector-curvature="0"
           id="path6114"
           style="font-style:normal;font-variant:normal;font-weight:normal;font-stretch:normal;line-height:37.04999924;font-family:Bahnschrift;-inkscape-font-specification:Bahnschrift;fill:#ffffff;stroke-width:0.14739671"
           d="m 81.149144,132.5345 0.504275,0.30101 -2.145456,3.5942 -0.504276,-0.30101 z m -1.607061,3.26515 2.056651,1.22766 -0.286257,0.47956 -2.056652,-1.22767 z" />
        <path
           inkscape:connector-curvature="0"
           id="path6116"
           style="font-style:normal;font-variant:normal;font-weight:normal;font-stretch:normal;line-height:37.04999924;font-family:Bahnschrift;-inkscape-font-specification:Bahnschrift;fill:#ffffff;stroke-width:0.14739671"
           d="m 83.578232,133.95383 0.540733,0.22915 -1.633265,3.85405 -0.540733,-0.22916 z m -1.152932,3.45102 2.213294,0.93795 -0.217919,0.51423 -2.213294,-0.93795 z m 0.702057,-1.65665 1.921722,0.81438 -0.217918,0.51423 -1.921723,-0.81439 z m 0.71329,-1.68317 2.213294,0.93795 -0.217919,0.51423 -2.213294,-0.93795 z" />
        <path
           inkscape:connector-curvature="0"
           id="path6118"
           style="font-style:normal;font-variant:normal;font-weight:normal;font-stretch:normal;line-height:37.04999924;font-family:Bahnschrift;-inkscape-font-specification:Bahnschrift;fill:#ffffff;stroke-width:0.14739671"
           d="m 86.844658,135.56491 0.565491,0.1585 -1.037244,3.70064 -0.565491,-0.1585 z m -1.046839,-0.6492 2.844087,0.79717 -0.150731,0.53777 -2.844087,-0.79717 z" />
        <path
           inkscape:connector-curvature="0"
           id="path6120"
           style="font-style:normal;font-variant:normal;font-weight:normal;font-stretch:normal;line-height:37.04999924;font-family:Bahnschrift;-inkscape-font-specification:Bahnschrift;fill:#ffffff;stroke-width:0.14739671"
           d="m 88.519269,135.63527 0.575855,0.11529 -0.288245,1.43964 -0.575855,-0.1153 z" />
        <path
           inkscape:connector-curvature="0"
           id="path6122"
           style="font-style:normal;font-variant:normal;font-weight:normal;font-stretch:normal;line-height:37.04999924;font-family:Bahnschrift;-inkscape-font-specification:Bahnschrift;fill:#ffffff;stroke-width:0.14739671"
           d="m 90.140066,140.17012 q -0.300564,-0.0321 -0.563517,-0.11817 -0.262953,-0.086 -0.485433,-0.22564 -0.219616,-0.1393 -0.404485,-0.33279 v 0 l 0.411302,-0.40767 v 0 q 0.215545,0.23151 0.490774,0.36518 0.27523,0.13367 0.610144,0.16949 0.452277,0.0484 0.719074,-0.091 0.267103,-0.14225 0.299863,-0.44854 l 3.07e-4,-0.003 q 0.02327,-0.21755 -0.07776,-0.35574 -0.09786,-0.14076 -0.27177,-0.22016 -0.17074,-0.082 -0.448618,-0.16379 -0.0083,-0.004 -0.01973,-0.005 -0.0086,-9.2e-4 -0.01687,-0.005 l -0.04202,-0.0132 q -0.410273,-0.11626 -0.664133,-0.23317 -0.250692,-0.11946 -0.411343,-0.37695 -0.160345,-0.26035 -0.113195,-0.70118 l 3.06e-4,-0.003 q 0.04133,-0.38644 0.242171,-0.64001 0.204006,-0.25613 0.551366,-0.36374 0.34736,-0.10761 0.81395,-0.0577 0.223277,0.0239 0.43276,0.0955 0.212346,0.0719 0.4109,0.1916 0.201723,0.11712 0.389347,0.28485 v 0 l -0.381652,0.42821 v 0 q -0.218912,-0.20002 -0.447316,-0.31131 -0.225235,-0.11385 -0.462824,-0.13926 -0.426514,-0.0456 -0.682473,0.10072 -0.252791,0.14378 -0.286164,0.4558 l -3.06e-4,0.003 q -0.02296,0.21469 0.0841,0.35064 0.109923,0.13625 0.283831,0.21565 0.177078,0.0768 0.493806,0.17442 0.01114,0.004 0.01943,0.008 0.01145,0.001 0.02259,0.005 0.01401,0.004 0.03087,0.009 0.01687,0.005 0.03088,0.009 0.369586,0.1177 0.610159,0.25055 0.243435,0.13317 0.386911,0.38882 0.146645,0.2531 0.102863,0.66244 l -6.13e-4,0.006 q -0.04072,0.38071 -0.250145,0.63336 -0.209119,0.24979 -0.567929,0.35618 -0.355642,0.10383 -0.839407,0.0521 z" />
        <path
           inkscape:connector-curvature="0"
           id="path6124"
           style="font-style:normal;font-variant:normal;font-weight:normal;font-stretch:normal;line-height:37.04999924;font-family:Bahnschrift;-inkscape-font-specification:Bahnschrift;fill:#ffffff;stroke-width:0.14739671"
           d="m 94.893656,140.23436 q -0.433375,0.034 -0.778506,-0.13243 -0.342261,-0.16664 -0.550752,-0.50548 -0.20849,-0.33884 -0.244945,-0.80378 l -0.08979,-1.14515 q -0.03645,-0.46494 0.116679,-0.83213 0.153134,-0.3672 0.465241,-0.58514 0.314752,-0.22104 0.748127,-0.25502 0.358755,-0.0281 0.67226,0.10322 0.31328,0.12849 0.536235,0.394 0.225825,0.26529 0.326605,0.62989 v 0 l -0.599837,0.047 v 0 q -0.06983,-0.19089 -0.210911,-0.33288 -0.138433,-0.14508 -0.317161,-0.21481 -0.178728,-0.0697 -0.36241,-0.0553 -0.255433,0.02 -0.438049,0.15851 -0.182616,0.13849 -0.271255,0.37068 -0.08886,0.22932 -0.06569,0.52493 l 0.08979,1.14514 q 0.02295,0.29275 0.146696,0.50828 0.123744,0.21554 0.325713,0.32388 0.201743,0.10546 0.457176,0.0854 0.186552,-0.0146 0.349809,-0.10539 0.166126,-0.091 0.280481,-0.25301 0.117225,-0.16224 0.155328,-0.37602 v 0 l 0.599838,-0.047 v 0 q -0.04272,0.37586 -0.224442,0.6731 -0.18172,0.29724 -0.470922,0.47585 -0.289427,0.17574 -0.645311,0.20364 z" />
        <path
           inkscape:connector-curvature="0"
           id="path6126"
           style="font-style:normal;font-variant:normal;font-weight:normal;font-stretch:normal;line-height:37.04999924;font-family:Bahnschrift;-inkscape-font-specification:Bahnschrift;fill:#ffffff;stroke-width:0.14739671"
           d="m 98.518644,139.67434 q -0.426473,0.098 -0.794485,-0.0124 -0.368657,-0.11321 -0.626226,-0.41145 -0.255408,-0.30168 -0.358551,-0.7506 l -0.265594,-1.15597 q -0.103143,-0.44891 -0.0044,-0.82902 0.10092,-0.38356 0.38384,-0.64352 0.282274,-0.26276 0.708746,-0.36074 0.426473,-0.098 0.795129,0.0152 0.368013,0.1104 0.623421,0.41209 0.257569,0.29824 0.360712,0.74716 l 0.265594,1.15596 q 0.103143,0.44892 0.0022,0.83248 -0.09876,0.3801 -0.381034,0.64287 -0.282919,0.25996 -0.709391,0.35794 z m -0.129574,-0.56395 q 0.252517,-0.058 0.417521,-0.21409 0.167166,-0.15951 0.223274,-0.39099 0.05827,-0.23492 -0.0049,-0.50989 l -0.274619,-1.19524 q -0.06318,-0.27496 -0.217497,-0.45809 -0.15216,-0.18658 -0.371542,-0.25433 -0.217221,-0.0712 -0.469737,-0.0132 -0.252517,0.058 -0.419682,0.21753 -0.165005,0.15607 -0.223274,0.39099 -0.05611,0.23148 0.0071,0.50644 l 0.274619,1.19525 q 0.06318,0.27496 0.215336,0.46154 0.154321,0.18313 0.371542,0.25433 0.219382,0.0677 0.471898,0.01 z" />
        <path
           inkscape:connector-curvature="0"
           id="path6128"
           style="font-style:normal;font-variant:normal;font-weight:normal;font-stretch:normal;line-height:37.04999924;font-family:Bahnschrift;-inkscape-font-specification:Bahnschrift;fill:#ffffff;stroke-width:0.14739671"
           d="m 101.02174,138.34808 0.88028,-0.34957 q 0.43077,-0.17106 0.57803,-0.48663 0.14888,-0.31932 -0.0126,-0.72601 l -0.45475,-1.14515 q -0.1615,-0.4067 -0.48782,-0.53421 -0.3247,-0.13125 -0.75547,0.0398 l -0.880271,0.34956 -0.206126,-0.51907 0.864217,-0.34319 q 0.46823,-0.18593 0.86482,-0.15447 0.39658,0.0315 0.69481,0.27544 0.29823,0.24398 0.47354,0.68546 l 0.43775,1.10234 q 0.17531,0.44148 0.12571,0.82359 -0.0496,0.3821 -0.31924,0.67813 -0.26696,0.29496 -0.73519,0.4809 l -0.86154,0.34212 z m -1.707979,-3.22463 0.545822,-0.21675 1.544877,3.89032 -0.54582,0.21675 z" />
        <path
           inkscape:connector-curvature="0"
           id="path6130"
           style="font-style:normal;font-variant:normal;font-weight:normal;font-stretch:normal;line-height:37.04999924;font-family:Bahnschrift;-inkscape-font-specification:Bahnschrift;fill:#ffffff;stroke-width:0.14739671"
           d="m 102.32301,133.88169 0.5081,-0.2945 2.09904,3.6215 -0.50811,0.2945 z m 2.06555,2.99539 2.07975,-1.20543 0.28006,0.4832 -2.07975,1.20542 z m -0.90227,-1.5567 1.80577,-1.04663 0.28007,0.4832 -1.80578,1.04663 z m -0.9167,-1.58161 2.07975,-1.20543 0.28006,0.4832 -2.07975,1.20543 z" />
      </g>
      <path
         style="fill:#ffffff;stroke-width:0.01117143"
         inkscape:connector-curvature="0"
         d="m 93.847642,126.06864 c -0.161982,-0.99762 -0.544046,-1.69806 -0.988669,-1.69806 -0.444624,0 -0.826688,0.70044 -0.98867,1.69806 z m -2.061128,1.07245 c 0,0.24801 0.01338,0.48596 0.03687,0.71498 h 2.070065 c 0.02347,-0.22902 0.03687,-0.46697 0.03687,-0.71498 0,-0.248 -0.01338,-0.48595 -0.03687,-0.71497 h -2.070065 c -0.02347,0.22902 -0.03687,0.46697 -0.03687,0.71497 z m 3.627365,-1.07245 c -0.319504,-0.75854 -0.966327,-1.34504 -1.765086,-1.58188 0.272583,0.37759 0.460262,0.94622 0.55857,1.58188 z m -3.345842,-1.58188 c -0.797644,0.23684 -1.445586,0.82334 -1.763972,1.58188 h 1.206516 c 0.09719,-0.63566 0.284871,-1.20429 0.557456,-1.58188 z m 3.465379,1.93936 h -1.281367 c 0.02347,0.23461 0.03687,0.47479 0.03687,0.71497 0,0.24019 -0.01338,0.48037 -0.03687,0.71498 h 1.28025 c 0.06144,-0.22902 0.09607,-0.46697 0.09607,-0.71498 0,-0.248 -0.03464,-0.48595 -0.09495,-0.71497 z m -4.104387,0.71497 c 0,-0.24018 0.01339,-0.48036 0.03687,-0.71497 h -1.281363 c -0.06033,0.22902 -0.09608,0.46697 -0.09608,0.71497 0,0.24801 0.03575,0.48596 0.09608,0.71498 h 1.280245 c -0.02236,-0.23461 -0.03575,-0.47479 -0.03575,-0.71498 z m 0.441274,1.07246 c 0.161982,0.99761 0.544046,1.69806 0.98867,1.69806 0.444623,0 0.826687,-0.70045 0.988669,-1.69806 z m 1.779605,1.58188 c 0.797644,-0.23684 1.445586,-0.82334 1.765086,-1.58188 h -1.206512 c -0.09831,0.63566 -0.285989,1.20428 -0.558574,1.58188 z m -3.345843,-1.58188 c 0.319505,0.75854 0.966328,1.34504 1.765087,1.58188 -0.272583,-0.3776 -0.460262,-0.94622 -0.558571,-1.58188 z"
         id="path6205" />
      <path
         style="fill:#ffffff;stroke-width:0.02428793"
         inkscape:connector-curvature="0"
         d="m 91.280429,88.210402 c 0.1518,0.1518 0.397837,0.1518 0.549634,0 l 0.274696,-0.274696 c 0.1518,-0.151797 0.1518,-0.397834 0,-0.549633 l -0.867563,-0.867323 0.867323,-0.867567 c 0.1518,-0.151799 0.1518,-0.397836 0,-0.549636 l -0.274697,-0.274696 c -0.151799,-0.151797 -0.397836,-0.151797 -0.549636,0 l -1.416959,1.416959 c -0.151799,0.1518 -0.151799,0.397836 0,0.549637 z m 2.331884,-0.27445 0.274697,0.274694 c 0.1518,0.151799 0.397836,0.151799 0.549636,0 l 1.416956,-1.416956 c 0.1518,-0.1518 0.1518,-0.397837 0,-0.549636 l -1.416956,-1.41696 c -0.1518,-0.1518 -0.397836,-0.1518 -0.549636,0 l -0.274697,0.274696 c -0.1518,0.1518 -0.1518,0.397837 0,0.549637 l 0.86732,0.867323 -0.86732,0.867566 c -0.1518,0.151796 -0.1518,0.397833 0,0.549636 z m 6.629637,4.023293 h -5.888855 c -0.01799,0.481145 -0.357275,0.777214 -0.795187,0.777214 h -1.476707 c -0.453942,0 -0.801986,-0.424308 -0.795916,-0.777214 h -5.810402 c -0.213734,0 -0.388607,0.174874 -0.388607,0.388609 v 0.388605 c 0,0.854938 0.699493,1.55443 1.554428,1.55443 H 99.07613 c 0.85493,0 1.55442,-0.699492 1.55442,-1.55443 v -0.388605 c 0,-0.213735 -0.17486,-0.388609 -0.3886,-0.388609 z m -1.16582,-8.937959 c 0,-0.641202 -0.524622,-1.165821 -1.165824,-1.165821 H 87.806525 c -0.641202,0 -1.165821,0.524619 -1.165821,1.165821 v 8.160748 H 99.07613 Z m -1.554434,6.606319 h -9.326564 v -6.21771 h 9.326564 z"
         id="path6348" />
    </g>
  </g>
</svg>
